<?xml version="1.0" standalone="no"?>
<!DOCTYPE svg PUBLIC "-//W3C//DTD SVG 20010904//EN"
 "http://www.w3.org/TR/2001/REC-SVG-20010904/DTD/svg10.dtd">
<svg version="1.0" xmlns="http://www.w3.org/2000/svg"
 width="400.000000pt" height="400.000000pt" viewBox="0 0 400.000000 400.000000"
 preserveAspectRatio="xMidYMid meet">

<g transform="translate(0.000000,400.000000) scale(0.100000,-0.100000)"
fill="#000000" stroke="none">
<path d="M657 2639 c-4 -8 -4 -25 0 -36 6 -15 13 -18 28 -12 16 6 17 8 3 8
-10 1 -18 11 -20 29 -3 20 -6 23 -11 11z"/>
<path d="M597 2634 c-4 -4 -7 -17 -7 -28 0 -15 7 -21 25 -22 14 -1 25 1 25 5
-1 14 -36 51 -43 45z"/>
<path d="M757 2633 c-4 -3 -7 -17 -7 -30 0 -21 2 -22 20 -11 22 14 27 48 7 48
-8 0 -17 -3 -20 -7z"/>
<path d="M521 2611 c-14 -25 11 -62 30 -43 11 10 10 12 -4 12 -9 0 -17 7 -17
15 0 8 5 15 10 15 6 0 10 5 10 10 0 17 -19 11 -29 -9z"/>
<path d="M825 2616 c-3 -9 -7 -23 -10 -32 -3 -9 0 -12 6 -9 5 4 15 2 22 -3 9
-8 12 -2 12 21 0 32 -22 49 -30 23z m25 -6 c0 -5 -4 -10 -10 -10 -5 0 -10 5
-10 10 0 6 5 10 10 10 6 0 10 -4 10 -10z"/>
<path d="M891 2588 c-16 -25 -16 -33 -2 -33 5 0 13 -3 17 -7 16 -17 25 -7 22
24 -4 39 -19 45 -37 16z"/>
<path d="M470 2593 c1 -5 7 -19 15 -33 10 -18 14 -20 15 -8 0 23 -11 48 -21
48 -5 0 -9 -3 -9 -7z"/>
<path d="M405 2571 c-10 -17 15 -53 33 -49 26 5 22 52 -5 56 -11 2 -24 -2 -28
-7z m35 -27 c0 -8 -4 -12 -10 -9 -5 3 -10 13 -10 21 0 8 5 12 10 9 6 -3 10
-13 10 -21z"/>
<path d="M954 2555 c-8 -19 2 -45 17 -45 8 0 8 4 1 13 -13 15 1 42 17 33 6 -4
11 -2 11 3 0 17 -40 13 -46 -4z"/>
<path d="M350 2534 c0 -3 5 -14 10 -25 11 -20 40 -26 40 -8 0 5 -5 7 -12 3 -7
-5 -9 -2 -5 9 4 12 2 14 -10 10 -11 -4 -14 -2 -9 5 4 7 2 12 -3 12 -6 0 -11
-3 -11 -6z"/>
<path d="M605 2528 c-62 -11 -178 -67 -228 -108 -20 -17 -57 -59 -81 -93 -102
-145 -122 -306 -59 -475 23 -63 36 -36 14 29 -46 129 -37 244 30 377 44 87
117 165 188 201 48 25 138 51 173 51 18 0 28 5 28 15 0 8 -3 14 -7 14 -5 -1
-30 -5 -58 -11z"/>
<path d="M730 2532 c0 -4 27 -12 59 -19 269 -51 449 -335 375 -593 -26 -91
-28 -104 -16 -96 23 14 52 137 52 220 -1 210 -141 400 -343 464 -76 24 -127
34 -127 24z"/>
<path d="M1025 2530 c4 -6 1 -17 -5 -25 -9 -11 -9 -15 -1 -15 6 0 11 5 11 10
0 6 7 10 16 10 14 0 14 3 4 15 -14 17 -35 21 -25 5z"/>
<path d="M314 2484 c6 -23 5 -24 -13 -14 -28 15 -35 -4 -9 -26 12 -11 18 -13
14 -6 -4 6 -2 12 4 12 22 0 38 25 28 43 -14 27 -31 20 -24 -9z"/>
<path d="M1062 2480 c-7 -11 -8 -20 -2 -20 5 0 14 9 20 20 6 11 7 20 3 20 -5
0 -14 -9 -21 -20z"/>
<path d="M630 2460 c-98 -18 -162 -51 -225 -114 -140 -143 -171 -327 -86 -501
71 -144 216 -236 376 -237 178 -2 341 107 407 272 18 45 23 75 23 161 0 101
-1 108 -37 180 -40 81 -93 143 -154 181 -78 48 -215 75 -304 58z m-63 -166
c14 -13 14 -17 2 -25 -20 -12 -2 -11 23 2 28 15 63 4 76 -26 6 -14 17 -25 24
-25 9 0 9 3 0 12 -16 16 -15 33 1 20 7 -6 33 -15 57 -21 40 -9 47 -8 68 12 18
17 34 22 69 20 25 -1 47 -4 50 -7 3 -3 -6 -23 -21 -44 -19 -28 -26 -51 -27
-88 0 -37 -2 -44 -9 -28 -12 30 -58 64 -87 64 -40 0 -77 -47 -102 -130 -25
-83 -40 -105 -78 -115 -69 -17 -104 78 -36 99 15 5 26 20 32 44 14 47 6 53
-12 9 -18 -42 -33 -53 -53 -36 -11 9 -14 24 -11 48 4 28 -3 53 -30 108 -38 76
-38 98 -1 113 34 13 48 12 65 -6z m283 -181 c17 -22 21 -37 17 -67 -7 -52 -62
-109 -108 -110 -39 -1 -59 -27 -43 -53 21 -34 74 -23 74 15 0 9 15 32 34 52
19 19 42 49 50 65 l16 30 0 -38 c0 -22 8 -52 17 -68 l17 -28 -40 -38 c-22 -21
-51 -62 -64 -90 -13 -29 -29 -53 -35 -53 -15 0 -105 68 -105 79 0 4 -49 39
-110 76 -105 66 -110 71 -110 103 0 33 27 92 42 92 4 0 8 -11 8 -24 0 -14 5
-28 10 -31 6 -3 10 -25 10 -47 0 -51 22 -78 65 -78 52 0 80 31 110 119 14 43
35 88 46 99 28 31 72 29 99 -5z"/>
<path d="M615 2260 c4 -6 11 -8 16 -5 14 9 11 15 -7 15 -8 0 -12 -5 -9 -10z"/>
<path d="M1102 2450 c-17 -28 -15 -36 6 -17 10 10 23 14 27 10 5 -5 3 0 -4 10
-16 21 -14 21 -29 -3z"/>
<path d="M1134 2406 c-10 -8 -16 -17 -13 -20 3 -3 14 3 24 14 21 23 17 26 -11
6z"/>
<path d="M210 2393 c1 -19 22 -53 34 -53 3 0 6 9 6 20 0 11 5 20 12 20 17 0
-2 16 -29 25 -18 5 -23 2 -23 -12z m30 -13 c0 -5 -2 -10 -4 -10 -3 0 -8 5 -11
10 -3 6 -1 10 4 10 6 0 11 -4 11 -10z"/>
<path d="M1156 2375 c-12 -12 -13 -21 -6 -36 13 -23 33 -25 51 -3 9 11 10 20
3 32 -15 23 -29 25 -48 7z m34 -20 c0 -8 -7 -15 -15 -15 -16 0 -20 12 -8 23
11 12 23 8 23 -8z"/>
<path d="M3680 2371 c-69 -21 -121 -65 -156 -131 -14 -27 -19 -57 -19 -125 0
-116 26 -174 99 -220 56 -34 151 -45 223 -26 38 10 41 14 45 49 5 60 0 75 -25
67 -12 -4 -47 -9 -78 -12 -52 -5 -59 -3 -90 25 -30 26 -33 36 -37 95 -5 83 11
133 52 158 38 23 74 24 123 4 42 -18 45 -15 65 48 14 45 9 51 -65 67 -55 11
-101 12 -137 1z"/>
<path d="M1530 2120 l0 -250 65 0 65 0 0 85 c0 75 2 85 21 95 11 7 22 10 23 8
2 -2 25 -45 51 -95 l49 -93 73 0 c40 0 73 2 73 5 0 3 -34 63 -75 134 -41 71
-75 132 -75 136 0 3 34 51 75 106 41 55 75 105 75 110 0 5 -33 9 -72 9 -71 0
-73 -1 -88 -30 -8 -16 -40 -64 -70 -106 l-55 -75 -3 105 -3 106 -64 0 -65 0 0
-250z"/>
<path d="M2010 2120 l0 -250 58 0 57 0 -2 147 -3 148 24 -60 c12 -33 36 -99
52 -147 l29 -88 65 0 66 0 44 138 c24 75 48 141 52 147 4 5 8 -57 8 -138 l0
-147 60 0 60 0 0 250 0 251 -91 -3 -92 -3 -51 -162 c-28 -90 -54 -163 -57
-163 -3 0 -25 64 -48 143 -61 207 -46 187 -146 187 l-85 0 0 -250z"/>
<path d="M2640 2120 l0 -250 65 0 64 0 3 83 3 82 35 1 c101 2 162 45 180 127
21 93 -17 168 -99 196 -19 6 -83 11 -142 11 l-109 0 0 -250z m208 127 c15 -12
16 -69 0 -85 -7 -7 -27 -12 -45 -12 l-33 0 0 54 c0 35 5 56 13 59 15 5 48 -3
65 -16z"/>
<path d="M3040 2120 l0 -250 119 0 c130 0 168 9 223 52 105 82 117 287 21 380
-56 54 -105 68 -244 68 l-119 0 0 -250z m254 121 c25 -21 39 -80 33 -141 -8
-89 -38 -121 -114 -124 l-38 -1 -3 142 c-2 129 -1 142 15 145 26 6 90 -7 107
-21z"/>
<path d="M180 2335 c10 -12 9 -15 -6 -16 -12 0 -8 -4 10 -10 17 -4 32 -7 34
-5 5 6 -31 46 -41 46 -5 0 -4 -7 3 -15z"/>
<path d="M1200 2305 c-20 -11 -21 -14 -7 -15 14 0 17 -5 12 -20 -7 -22 -1 -23
30 -10 11 5 14 9 6 9 -9 1 -11 9 -7 26 7 28 1 30 -34 10z"/>
<path d="M162 2267 c18 -19 38 -22 38 -7 0 6 -4 10 -9 10 -5 0 -18 3 -28 7
-17 6 -17 6 -1 -10z"/>
<path d="M130 2241 c0 -5 7 -12 16 -15 27 -10 36 -7 20 9 -16 17 -36 20 -36 6z"/>
<path d="M1223 2222 c-8 -5 -9 -13 -3 -22 7 -10 10 -11 10 -2 0 6 3 11 8 11
18 -3 32 2 32 11 0 12 -30 13 -47 2z"/>
<path d="M115 2180 c-3 -6 -3 -10 2 -10 4 0 18 -3 31 -6 15 -4 22 -2 22 8 0
16 -46 23 -55 8z"/>
<path d="M1243 2173 c-7 -2 -13 -9 -13 -14 0 -6 6 -7 13 -3 10 6 10 4 0 -7
-19 -20 -16 -27 12 -21 27 5 33 17 13 25 -10 4 -10 6 0 6 6 1 12 6 12 11 0 10
-16 12 -37 3z"/>
<path d="M114 2123 c3 -6 0 -14 -7 -16 -8 -3 -6 -7 6 -12 9 -4 25 -4 34 -1 15
6 15 8 3 16 -10 7 -11 10 -2 10 6 0 12 3 12 8 0 4 -11 7 -25 7 -15 0 -23 -5
-21 -12z"/>
<path d="M1266 2094 c-3 -8 -10 -12 -16 -9 -5 3 -10 2 -10 -4 0 -19 17 -20 33
0 19 22 21 29 8 29 -5 0 -12 -7 -15 -16z"/>
<path d="M116 1932 c-3 -6 -1 -14 5 -17 15 -10 25 3 12 16 -7 7 -13 7 -17 1z"/>
<path d="M1266 1932 c-3 -6 -1 -14 5 -17 15 -10 25 3 12 16 -7 7 -13 7 -17 1z"/>
<path d="M310 1733 c83 -96 182 -154 305 -180 154 -32 342 29 446 146 27 30
47 56 46 57 -2 2 -31 -23 -65 -56 -202 -192 -488 -191 -685 3 -62 60 -87 76
-47 30z"/>
<path d="M1549 1718 c-3 -30 0 -48 6 -48 7 0 9 15 7 38 -6 58 -9 61 -13 10z"/>
<path d="M1716 1747 c3 -10 9 -15 12 -12 3 3 0 11 -7 18 -10 9 -11 8 -5 -6z"/>
<path d="M2327 1746 c12 -21 6 -57 -11 -68 -8 -5 -7 -8 1 -8 15 0 43 28 43 44
0 7 -10 21 -22 32 -21 19 -21 19 -11 0z"/>
<path d="M2540 1745 c-1 -11 -1 -30 0 -42 1 -15 -4 -23 -14 -23 -9 0 -16 7
-16 15 0 8 -4 15 -8 15 -4 0 -8 -9 -8 -20 0 -16 7 -20 31 -20 30 0 31 1 27 38
-4 47 -10 63 -12 37z"/>
<path d="M2785 1715 c0 -25 3 -45 8 -45 4 0 7 20 7 45 0 25 -3 45 -7 45 -5 0
-8 -20 -8 -45z"/>
<path d="M2849 1718 c-3 -30 0 -48 6 -48 7 0 9 15 7 38 -6 58 -9 61 -13 10z"/>
<path d="M3040 1715 c0 -25 5 -45 10 -45 6 0 10 20 10 45 0 25 -4 45 -10 45
-5 0 -10 -20 -10 -45z"/>
<path d="M3132 1735 c0 -16 2 -22 5 -12 2 9 2 23 0 30 -3 6 -5 -1 -5 -18z"/>
<path d="M222 1733 c-7 -10 -10 -12 -7 -5 4 7 -1 12 -13 12 -18 0 -19 -3 -9
-25 12 -24 12 -24 31 -6 10 11 17 24 15 30 -3 7 -9 4 -17 -6z"/>
<path d="M2260 1721 c0 -16 8 -35 18 -42 15 -13 16 -12 3 3 -7 10 -11 29 -9
43 3 14 1 25 -3 25 -5 0 -9 -13 -9 -29z"/>
<path d="M1195 1714 c23 -17 32 -18 38 -1 3 8 -6 12 -26 13 -28 1 -29 0 -12
-12z"/>
<path d="M2620 1700 c0 -16 3 -30 8 -30 4 0 7 14 7 30 0 17 -3 30 -7 30 -5 0
-8 -13 -8 -30z"/>
<path d="M3087 1723 c-10 -9 -9 -41 1 -47 4 -2 8 9 7 25 0 16 0 29 -1 29 0 0
-4 -3 -7 -7z"/>
<path d="M1630 1695 c0 -14 5 -25 10 -25 6 0 10 11 10 25 0 14 -4 25 -10 25
-5 0 -10 -11 -10 -25z"/>
<path d="M1831 1698 c-1 -21 4 -28 17 -28 11 0 13 3 6 8 -7 4 -14 16 -17 27
-4 15 -5 14 -6 -7z"/>
<path d="M1870 1695 c0 -14 5 -25 10 -25 6 0 10 11 10 25 0 14 -4 25 -10 25
-5 0 -10 -11 -10 -25z"/>
<path d="M2028 1695 c-3 -14 -1 -25 3 -25 5 0 9 11 9 25 0 14 -2 25 -4 25 -2
0 -6 -11 -8 -25z"/>
<path d="M2068 1695 c-3 -14 -1 -25 3 -25 5 0 9 11 9 25 0 14 -2 25 -4 25 -2
0 -6 -11 -8 -25z"/>
<path d="M2110 1695 c0 -14 4 -25 9 -25 4 0 6 11 3 25 -2 14 -6 25 -8 25 -2 0
-4 -11 -4 -25z"/>
<path d="M2151 1693 c-1 -30 2 -33 27 -32 26 0 26 1 5 11 -12 6 -24 20 -26 32
-3 14 -5 10 -6 -11z"/>
<path d="M2186 1703 c-6 -14 -5 -15 5 -6 7 7 10 15 7 18 -3 3 -9 -2 -12 -12z"/>
<path d="M2381 1698 c-1 -21 4 -28 17 -28 11 0 13 3 6 8 -7 4 -14 16 -17 27
-4 15 -5 14 -6 -7z"/>
<path d="M2420 1695 c0 -14 4 -25 9 -25 4 0 6 11 3 25 -2 14 -6 25 -8 25 -2 0
-4 -11 -4 -25z"/>
<path d="M2580 1695 c0 -14 4 -25 9 -25 4 0 6 11 3 25 -2 14 -6 25 -8 25 -2 0
-4 -11 -4 -25z"/>
<path d="M2671 1715 c0 -5 6 -19 14 -29 8 -11 15 -15 15 -10 0 6 -7 19 -15 30
-8 10 -14 15 -14 9z"/>
<path d="M3000 1695 c0 -14 4 -25 9 -25 4 0 6 11 3 25 -2 14 -6 25 -8 25 -2 0
-4 -11 -4 -25z"/>
<path d="M3360 1695 c0 -14 4 -25 9 -25 4 0 6 11 3 25 -2 14 -6 25 -8 25 -2 0
-4 -11 -4 -25z"/>
<path d="M3420 1701 c0 -11 4 -22 9 -25 4 -3 6 6 3 19 -5 30 -12 33 -12 6z"/>
<path d="M1757 1690 c-3 -11 -1 -20 4 -20 5 0 9 9 9 20 0 11 -2 20 -4 20 -2 0
-6 -9 -9 -20z"/>
<path d="M1950 1696 c0 -8 4 -17 9 -20 5 -4 7 3 4 14 -6 23 -13 26 -13 6z"/>
<path d="M2890 1696 c0 -8 4 -17 8 -20 4 -2 8 4 8 15 0 10 -4 19 -8 19 -4 0
-8 -6 -8 -14z"/>
<path d="M3177 1690 c-3 -11 -1 -20 4 -20 5 0 9 9 9 20 0 11 -2 20 -4 20 -2 0
-6 -9 -9 -20z"/>
<path d="M235 1680 c-20 -22 -7 -28 14 -7 11 10 11 8 1 -12 -17 -33 1 -47 31
-22 13 11 19 20 14 21 -6 0 -17 -6 -24 -12 -10 -11 -10 -8 -2 13 15 42 -4 52
-34 19z"/>
<path d="M1171 1681 c13 -11 28 -17 32 -14 10 6 -23 32 -42 33 -7 0 -3 -8 10
-19z"/>
<path d="M3130 1685 c0 -8 4 -15 10 -15 5 0 7 7 4 15 -4 8 -8 15 -10 15 -2 0
-4 -7 -4 -15z"/>
<path d="M3210 1691 c0 -10 19 -25 25 -20 1 2 -3 10 -11 17 -8 7 -14 8 -14 3z"/>
<path d="M1675 1680 c-3 -5 -1 -10 4 -10 6 0 11 5 11 10 0 6 -2 10 -4 10 -3 0
-8 -4 -11 -10z"/>
<path d="M1915 1680 c-3 -5 -1 -10 4 -10 6 0 11 5 11 10 0 6 -2 10 -4 10 -3 0
-8 -4 -11 -10z"/>
<path d="M2460 1680 c0 -5 5 -10 11 -10 5 0 7 5 4 10 -3 6 -8 10 -11 10 -2 0
-4 -4 -4 -10z"/>
<path d="M2960 1680 c0 -5 5 -10 11 -10 5 0 7 5 4 10 -3 6 -8 10 -11 10 -2 0
-4 -4 -4 -10z"/>
<path d="M3280 1680 c0 -5 5 -10 11 -10 5 0 7 5 4 10 -3 6 -8 10 -11 10 -2 0
-4 -4 -4 -10z"/>
<path d="M3320 1680 c0 -6 7 -10 15 -10 8 0 15 2 15 4 0 2 -7 6 -15 10 -8 3
-15 1 -15 -4z"/>
<path d="M1127 1673 c-13 -13 -7 -42 11 -52 13 -7 23 -6 30 1 17 17 15 33 -3
18 -19 -16 -37 -3 -30 21 7 20 3 24 -8 12z"/>
<path d="M1588 1673 c7 -3 16 -2 19 1 4 3 -2 6 -13 5 -11 0 -14 -3 -6 -6z"/>
<path d="M2318 1646 c24 -11 39 -13 50 -6 14 8 13 9 -8 10 -14 0 -36 3 -50 6
-18 4 -16 1 8 -10z"/>
<path d="M295 1620 c-21 -23 -10 -44 21 -38 23 4 27 20 11 42 -12 16 -14 16
-32 -4z m30 -20 c-3 -5 -10 -10 -16 -10 -5 0 -9 5 -9 10 0 6 7 10 16 10 8 0
12 -4 9 -10z"/>
<path d="M2168 1633 c7 -3 16 -2 19 1 4 3 -2 6 -13 5 -11 0 -14 -3 -6 -6z"/>
<path d="M1096 1606 c4 -11 0 -13 -15 -9 -27 7 -27 -9 1 -33 22 -19 22 -19 8
0 -14 18 -13 19 7 14 28 -7 39 7 23 27 -16 19 -31 19 -24 1z"/>
<path d="M372 1550 c-15 -25 -8 -40 19 -40 25 0 35 25 19 45 -16 20 -23 19
-38 -5z m38 -9 c0 -12 -20 -25 -27 -18 -7 7 6 27 18 27 5 0 9 -4 9 -9z"/>
<path d="M1038 1554 c15 -28 3 -38 -20 -17 -10 9 -18 11 -18 6 0 -17 29 -36
45 -29 20 7 19 30 -2 47 -15 13 -15 12 -5 -7z"/>
<path d="M432 1506 c-9 -20 -8 -25 4 -30 25 -9 27 -7 13 11 -12 15 -12 16 3
10 13 -4 15 -2 11 10 -5 12 -3 14 7 8 9 -5 11 -4 6 3 -12 19 -32 14 -44 -12z"/>
<path d="M942 1518 c-13 -13 2 -48 21 -48 23 0 37 22 26 42 -11 21 -30 23 -47
6z m33 -16 c0 -18 -20 -15 -23 4 -3 10 1 15 10 12 7 -3 13 -10 13 -16z"/>
<path d="M494 1495 c-4 -11 -9 -23 -11 -27 -2 -5 0 -8 6 -8 5 0 12 8 14 18 3
10 5 6 6 -10 1 -18 7 -28 16 -28 8 0 15 4 15 9 0 5 3 17 7 27 4 12 3 15 -6 10
-7 -5 -18 -1 -26 10 -13 18 -14 18 -21 -1z"/>
<path d="M873 1484 c-9 -24 21 -49 43 -35 18 10 17 10 -5 11 -18 0 -22 4 -18
20 6 24 -11 27 -20 4z"/>
<path d="M579 1458 c4 -27 6 -29 9 -10 2 12 9 22 15 22 7 0 6 4 -3 10 -24 15
-27 12 -21 -22z"/>
<path d="M790 1466 c0 -8 5 -18 11 -22 8 -4 7 -9 -2 -15 -11 -7 -10 -9 3 -9
24 0 30 16 12 30 -12 11 -12 15 -2 21 10 7 9 9 -4 9 -10 0 -18 -6 -18 -14z"/>
<path d="M626 1453 c-4 -9 -2 -21 4 -27 7 -7 10 -2 10 17 0 31 -5 34 -14 10z"/>
<path d="M667 1463 c-4 -3 1 -15 10 -26 17 -19 17 -20 1 -14 -10 4 -18 2 -18
-3 0 -14 37 -12 46 2 4 6 -1 17 -10 24 -13 9 -14 13 -4 17 9 4 8 6 -3 6 -9 1
-19 -2 -22 -6z"/>
<path d="M728 1463 c6 -2 12 -16 12 -29 0 -13 5 -24 11 -24 7 0 9 9 5 24 -4
15 -1 26 7 29 6 3 -1 5 -18 5 -16 0 -24 -2 -17 -5z"/>
</g>
</svg>
